<svg width="136" height="30" viewBox="0 0 136 30" fill="none" xmlns="http://www.w3.org/2000/svg">
<g id="&#208;&#148;&#209;&#131;&#209;&#136;&#208;&#176; &#208;&#148;&#209;&#128;&#208;&#176;&#208;&#186;&#208;&#190;&#208;&#189;&#208;&#176;">
<path d="M4.23821 21.6012C5.81333 16.7372 7.38845 10.8761 8.96357 5.58912C9.04476 5.28701 9.17467 4.77342 9.19091 4.44109C9.20715 4.16918 9.17467 3.56496 8.57385 3.56496C8.34651 3.56496 5.34242 3.47432 5.34242 3.47432V3.05136H12.6334V3.47432C12.6334 3.47432 11.8865 3.50453 11.6754 3.62538C11.2857 3.80665 11.172 4.22961 11.1233 4.80363C11.0746 5.19638 11.0746 6.22357 11.0583 7.00906V20.7855C11.0583 21.3293 11.0746 21.9335 11.107 22.2961C11.172 22.9003 11.2857 23.4139 11.6754 23.6254C11.9027 23.7462 12.4548 23.7764 12.7309 23.7764L14.2735 29.7885L14.0624 29.9698C13.2505 26.858 12.1138 24.4713 10.5225 24.2598C10.3438 24.2296 10.1003 24.1994 9.8242 24.1994H4.79031C4.38436 24.1994 4.02711 24.2296 3.78354 24.2598C2.1597 24.5015 1.02302 26.8882 0.19486 30L0 29.7885L1.57512 23.7462C2.69557 23.716 3.60491 23.5952 4.23821 21.6012ZM3.9784 23.716H9.6943V4.10876L3.9784 23.716Z" fill="#EB5B38"/>
<path d="M13.1315 13.3233L16.233 0L16.4441 0.151057L15.957 3.05136H20.39C19.8379 6.85801 19.1072 10.5136 19.1072 13.6858C19.1072 14.8943 19.3346 15.2568 19.6593 15.2568C21.5267 15.2568 23.8326 6.34441 24.5795 3.71601L23.0694 3.47432V3.05136H27.8759L27.8922 3.47432C27.8922 3.47432 27.3076 3.47432 26.8529 3.65559C26.3333 3.86707 26.1871 4.50151 26.0247 5.19638C25.9111 5.70997 25.7487 6.73716 25.6837 7.0997C23.7839 21.3293 23.8001 24.1994 17.1748 24.1994H15.4211C14.9502 24.1994 14.4306 24.0181 14.122 23.2931C13.9597 22.8399 13.9597 22.3263 14.0733 21.6918C14.9664 17.3716 17.2723 6.85801 17.2885 6.76737L17.5483 6.91843C17.5159 7.00906 15.2262 17.4924 14.3331 21.7825C14.2032 22.4169 14.2357 22.7492 14.3494 23.0514C14.4955 23.4441 14.934 23.716 15.3886 23.716H16.98C19.9191 23.716 21.5917 22.3565 22.5985 18.2175C23.2318 15.6495 24.0437 8.64048 24.5471 4.83384C23.1506 10.0906 21.1045 16.3746 19.1397 16.3746C18.5876 16.3746 17.8081 15.7402 17.8081 13.142C17.8081 9.60725 18.3927 6.94864 18.9124 3.59517C18.4414 3.53474 17.5159 3.53474 17.1748 3.56496C16.1356 3.65559 15.6484 4.71299 15.3724 5.5287C14.9989 6.64653 13.3588 13.5347 13.3588 13.5347L13.1315 13.3233Z" fill="#EB5B38"/>
<path d="M40.782 9.06344L40.7982 9.12387C39.5803 15.7402 38.3625 23.8671 40.3436 23.8671L42.6981 23.9577C43.5587 23.9577 44.1433 23.3233 43.6887 21.6616C42.9579 18.1269 41.3503 11.3897 40.782 9.06344ZM31.9158 3.53474H28.0024C27.1418 3.53474 26.5572 4.16918 27.0119 5.83082C27.6614 8.91239 28.9605 14.4411 29.6425 17.3112C30.1459 12.6586 31.5748 5.31722 31.9158 3.53474ZM40.4572 3.02115L41.9836 3.05136C41.7238 4.44109 41.3341 6.34441 40.8957 8.27795C41.0418 8.97281 43.169 17.7644 44.0297 21.9335C44.3544 23.7764 43.5587 24.4411 42.6819 24.4411L39.6778 24.3505C38.265 24.3505 37.9078 22.2659 37.9078 20.0906C37.9078 19.6375 37.9403 19.0634 38.0052 18.3988C37.583 20.6344 36.6737 24.5015 35.5045 24.5015C33.8644 24.5015 33.6696 22.0242 33.6696 19.8489C33.6696 19.4864 33.6858 19.0634 33.7345 18.5801C33.2961 20.8157 32.403 24.5015 31.2663 24.5015C29.6262 24.5015 29.4639 21.6314 29.4639 19.9094C29.4639 19.426 29.4963 18.8218 29.6262 18.429C29.0579 16.0725 27.4016 9.12387 26.6709 5.55891C26.3461 3.74622 27.1093 3.08157 27.9699 3.05136H33.4585C32.338 8.85196 29.3502 23.9879 31.4125 23.9879C32.7115 23.9879 33.9619 15.9819 34.3841 13.4743C35.1473 8.54985 36.2515 3.05136 36.2515 3.05136H37.6967C36.5763 8.85196 33.5884 23.9879 35.6507 23.9879C37.0309 23.9879 38.3625 14.8943 38.6872 13.0514L38.6548 13.2931C39.418 8.36858 40.4572 3.02115 40.4572 3.02115Z" fill="#EB5B38"/>
<path d="M52.8437 23.7764L54.2077 23.565L51.9018 12.0846L46.9978 17.3716L45.3903 23.5045L48.8653 23.7764V24.1994H43.2143V23.7764C43.2143 23.7764 44.0912 23.716 44.3997 23.5347C44.757 23.3233 45.033 22.9607 45.2928 22.3263C45.5526 21.6616 45.9586 20.2719 46.0073 20.1208L46.803 17.0091L49.2875 7.49245C49.4336 6.94864 49.7097 5.8006 49.8883 4.92447C49.9857 4.41088 49.937 3.71601 49.3849 3.65559C49.1576 3.65559 46.7218 3.47432 46.7218 3.47432V3.05136H51.5446L54.9546 20C55.2469 21.4199 55.6367 23.2628 56.546 23.5952C56.9195 23.7462 57.5041 23.7764 57.5041 23.7764V24.1994H52.8437V23.7764ZM47.1927 16.5861L51.8044 11.6314L50.3592 4.4713L47.1927 16.5861Z" fill="#EB5B38"/>
<path d="M62.7058 21.6012C64.2809 16.7372 65.856 10.8761 67.4312 5.58912C67.5123 5.28701 67.6423 4.77342 67.6585 4.44109C67.6747 4.16918 67.6423 3.56496 67.0414 3.56496C66.8141 3.56496 63.81 3.47432 63.81 3.47432V3.05136H71.101V3.47432C71.101 3.47432 70.3541 3.50453 70.143 3.62538C69.7532 3.80665 69.6396 4.22961 69.5909 4.80363C69.5421 5.19638 69.5421 6.22357 69.5259 7.00906V20.7855C69.5259 21.3293 69.5421 21.9335 69.5746 22.2961C69.6396 22.9003 69.7532 23.4139 70.143 23.6254C70.3703 23.7462 70.9224 23.7764 71.1984 23.7764L72.7411 29.7885L72.53 29.9698C71.7181 26.858 70.5814 24.4713 68.99 24.2598C68.8114 24.2296 68.5678 24.1994 68.2918 24.1994H63.2579C62.8519 24.1994 62.4947 24.2296 62.2511 24.2598C60.6273 24.5015 59.4906 26.8882 58.6624 30L58.4676 29.7885L60.0427 23.7462C61.1631 23.716 62.0725 23.5952 62.7058 21.6012ZM62.446 23.716H68.1619V4.10876L62.446 23.716Z" fill="#EB5B38"/>
<path d="M76.4544 24.1994H71.4367V23.7764C71.4367 23.7764 72.1837 23.7462 72.3948 23.6254C72.7682 23.4441 72.8981 23.0211 72.9469 22.4471C72.9956 22.0544 72.9956 21.0272 72.9956 20.2417V6.49547C72.9956 5.92145 72.9956 5.19638 72.9469 4.80363C72.8981 4.22961 72.7682 3.80665 72.3948 3.62538C72.1837 3.50453 71.4367 3.47432 71.4367 3.47432V3.05136H74.9279C79.3285 3.05136 80.1405 6.5861 80.1405 8.36858C80.1405 11.5408 78.2893 13.5952 75.8535 13.5952H75.4313V13.1118H75.8698C77.6073 13.1118 78.7764 11.1782 78.7764 8.429C78.7764 5.07553 77.1364 3.53474 74.9117 3.53474H74.3596V22.2961L74.3434 23.5045L76.4544 23.8066V24.1994Z" fill="#EB5B38"/>
<path d="M89.4434 23.7764L90.8074 23.565L88.5016 12.0846L83.5976 17.3716L81.99 23.5045L85.465 23.7764V24.1994H79.814V23.7764C79.814 23.7764 80.6909 23.716 80.9994 23.5347C81.3567 23.3233 81.6327 22.9607 81.8925 22.3263C82.1524 21.6616 82.5583 20.2719 82.607 20.1208L83.4027 17.0091L85.8872 7.49245C86.0333 6.94864 86.3094 5.8006 86.488 4.92447C86.5854 4.41088 86.5367 3.71601 85.9846 3.65559C85.7573 3.65559 83.3215 3.47432 83.3215 3.47432V3.05136H88.1443L91.5544 20C91.8467 21.4199 92.2364 23.2628 93.1457 23.5952C93.5192 23.7462 94.1038 23.7764 94.1038 23.7764V24.1994H89.4434V23.7764ZM83.7924 16.5861L88.4041 11.6314L86.9589 4.4713L83.7924 16.5861Z" fill="#EB5B38"/>
<path d="M95.0062 20.8157V6.43505C95.0062 5.89124 94.9899 5.13595 94.9574 4.71299C94.9087 4.16918 94.8113 3.71601 94.4216 3.62538C94.178 3.56496 93.4473 3.47432 93.4473 3.47432V3.05136H97.9615V3.47432L96.3702 3.6858V12.1752L100.722 3.17221L100.056 0.543807L100.251 0.332327L102.492 7.76435C103.239 4.62236 104.619 2.80967 106.357 2.80967C109.734 2.80967 111.764 8.39879 111.764 13.5952C111.764 19.9698 109.751 24.4411 107.104 24.4411C103.824 24.4411 101.891 18.7009 101.891 13.5952C101.891 11.6314 102.054 9.90937 102.346 8.39879C101.907 7.00906 101.599 6.0423 101.502 5.8006C101.339 5.37764 101.047 5.13595 100.755 5.13595C100.284 5.13595 99.8127 5.83082 99.4879 6.43505L99.082 7.28097L101.323 18.6405C101.583 19.9396 102.021 21.9335 102.281 22.5076C102.525 23.0816 102.833 23.4743 103.125 23.565C103.499 23.716 104.116 23.8066 104.116 23.8066V24.1994H99.7315V23.7764L100.852 23.6254L98.059 9.42598L96.3702 12.9305V23.565L97.9615 23.7764V24.1994H93.4473V23.8066C93.4473 23.8066 94.2105 23.8066 94.4053 23.6858C94.7788 23.5045 94.9087 23.0816 94.9574 22.4773C94.9899 22.0846 95.0062 21.3595 95.0062 20.8157ZM110.871 16.7372C110.871 11.2689 108.955 4.07855 105.512 4.07855C103.824 4.07855 103.012 6.13293 102.833 8.88218L107.104 23.0211C107.364 23.1118 107.623 23.1722 107.899 23.1722C109.962 23.1722 110.871 20.2417 110.871 16.7372ZM106.925 23.4441C106.373 21.571 104.23 14.5015 102.801 9.87915C102.801 15.136 104.165 21.3293 106.925 23.4441Z" fill="#EB5B38"/>
<path d="M117.345 23.7764L118.937 23.5347V13.5347H114.844V23.5347L116.436 23.7764V24.1994H111.922V23.7764C111.922 23.7764 112.669 23.7462 112.88 23.6254C113.253 23.4441 113.383 23.0211 113.432 22.4471C113.48 22.0544 113.48 21.3293 113.48 20.7553V7.00906C113.48 6.22357 113.48 5.19638 113.432 4.80363C113.383 4.22961 113.253 3.80665 112.88 3.62538C112.669 3.50453 111.922 3.47432 111.922 3.47432V3.05136H116.436V3.47432L114.844 3.71601V13.0514H118.937V3.71601L117.345 3.47432V3.05136H121.876V3.47432C121.876 3.47432 121.129 3.50453 120.918 3.62538C120.528 3.80665 120.414 4.22961 120.366 4.80363C120.317 5.19638 120.317 6.22357 120.301 7.00906V20.7553C120.317 21.3293 120.317 22.0544 120.366 22.4471C120.414 23.0211 120.528 23.4441 120.918 23.6254C121.129 23.7462 121.876 23.7764 121.876 23.7764V24.1994H117.345V23.7764Z" fill="#EB5B38"/>
<path d="M131.34 23.7764L132.704 23.565L130.398 12.0846L125.494 17.3716L123.886 23.5045L127.361 23.7764V24.1994H121.71V23.7764C121.71 23.7764 122.587 23.716 122.896 23.5347C123.253 23.3233 123.529 22.9607 123.789 22.3263C124.049 21.6616 124.455 20.2719 124.503 20.1208L125.299 17.0091L127.783 7.49245C127.93 6.94864 128.206 5.8006 128.384 4.92447C128.482 4.41088 128.433 3.71601 127.881 3.65559C127.653 3.65559 125.218 3.47432 125.218 3.47432V3.05136H130.041L133.451 20C133.743 21.4199 134.133 23.2628 135.042 23.5952C135.415 23.7462 136 23.7764 136 23.7764V24.1994H131.34V23.7764ZM125.689 16.5861L130.3 11.6314L128.855 4.4713L125.689 16.5861Z" fill="#EB5B38"/>
</g>
</svg>
